#N canvas 2158 25 1016 617 12;
#X obj 107 91 noise~;
#X obj 98 129 *~ 0.5;
#X obj 98 339 *~;
#X obj 213 291 line, f 8;
#X obj 218 9 bng 19 250 50 0 empty empty empty 0 -10 0 12 #fcfcfc #000000 #000000;
#X floatatom 214 314 5 0 0 0 - - - 0;
#X msg 218 41 1 1000;
#X obj 333 46 delay 1000;
#X obj 332 79 bng 19 250 50 0 empty empty empty 0 -10 0 12 #fcfcfc #000000 #000000;
#X msg 327 135 0.5 1500;
#X obj 468 127 delay 3000;
#X obj 468 163 bng 19 250 50 0 empty empty empty 0 -10 0 12 #fcfcfc #000000 #000000;
#X msg 466 210 0 1000;
#X obj 97 377 *~ 0.25;
#X obj 101 434 dac~;
#X connect 0 0 1 0;
#X connect 1 0 2 0;
#X connect 2 0 13 0;
#X connect 3 0 5 0;
#X connect 4 0 6 0;
#X connect 4 0 7 0;
#X connect 5 0 2 1;
#X connect 6 0 3 0;
#X connect 7 0 8 0;
#X connect 8 0 9 0;
#X connect 8 0 10 0;
#X connect 9 0 3 0;
#X connect 10 0 11 0;
#X connect 11 0 12 0;
#X connect 12 0 3 0;
#X connect 13 0 14 0;
#X connect 13 0 14 1;
